<?xml version="1.0" encoding="UTF-8"?>
<svg xmlns="http://www.w3.org/2000/svg" xmlns:xlink="http://www.w3.org/1999/xlink" viewBox="0 0 46 46" width="46px" height="46px">
<g id="surface121845691">
<path style=" stroke:none;fill-rule:nonzero;fill:rgb(0%,0%,0%);fill-opacity:1;" d="M 19.320312 2.761719 C 10.691406 2.761719 3.679688 9.769531 3.679688 18.398438 C 3.679688 27.027344 10.691406 34.039062 19.320312 34.039062 C 22.734375 34.039062 25.890625 32.941406 28.460938 31.078125 L 40.566406 43.152344 L 43.152344 40.566406 L 31.195312 28.578125 C 33.542969 25.839844 34.960938 22.285156 34.960938 18.398438 C 34.960938 9.769531 27.949219 2.761719 19.320312 2.761719 Z M 19.320312 4.601562 C 26.953125 4.601562 33.121094 10.765625 33.121094 18.398438 C 33.121094 26.03125 26.953125 32.199219 19.320312 32.199219 C 11.6875 32.199219 5.519531 26.03125 5.519531 18.398438 C 5.519531 10.765625 11.6875 4.601562 19.320312 4.601562 Z M 19.320312 4.601562 "/>
</g>
</svg>
